<svg id="Layer_1" data-name="Layer 1" xmlns="http://www.w3.org/2000/svg" viewBox="0 0 300 300"><defs><style>.cls-1{fill:#00ffa3;}.cls-2{fill:#141844;}</style></defs><path class="cls-1" d="M282.58,92c-8.37-39.48-31.74-64.85-71.42-73.93C172.75,9.29,134.05,9.6,95.45,16.52,76.84,19.85,59.54,26.84,45.27,39.9,28.44,55.34,20.43,75.35,16.39,97.19c-5.78,31.39-5.6,62.95-1.8,94.55.59,3.82,1.1,7.66,1.79,11.45,7.75,42.17,31.27,69.8,73.87,79.1,38.13,8.34,76.53,8.1,114.82,1.06,18.64-3.42,35.94-10.41,50.07-23.65,19.61-18.36,26.87-42.32,30.28-68C289.34,158.36,289.57,125.05,282.58,92Z"/><path class="cls-2" d="M149.15,300a287.21,287.21,0,0,1-61.35-6.53c-23.2-5.08-42-15.4-56-30.7-13.38-14.65-22.35-34-26.66-57.51-.52-2.83-.93-5.62-1.33-8.32-.17-1.15-.34-2.3-.52-3.45l0-.39c-4.29-35.68-3.67-67.73,1.91-98,5.07-27.48,15.67-48.3,32.39-63.65C52.35,17.92,70.63,9.34,93.44,5.26c42-7.53,82.49-7,120.27,1.67,21.79,5,39.68,14.67,53.17,28.81,13.19,13.81,22.23,31.95,26.88,53.89h0c6.56,31,7.55,64.83,3,103.44l0,.18c-3.05,22.94-9.65,52.17-33.8,74.79-14.55,13.64-32.81,22.33-55.82,26.56A320.86,320.86,0,0,1,149.15,300ZM25.92,190.19c.18,1.13.35,2.27.51,3.41.39,2.62.75,5.1,1.2,7.52,7.18,39.11,28.46,62,65.06,70,35.05,7.67,72.16,8,110.31,1,18.57-3.42,33.06-10.21,44.32-20.76,14.71-13.77,23-32.6,26.76-61,4.22-36.07,3.34-67.45-2.69-95.95h0c-7.61-35.92-28.15-57.23-62.78-65.15s-72.15-8.43-111.14-1.44c-18.42,3.29-33,10-44.47,20.55-13.11,12-21.17,28.21-25.36,50.94C22.5,127.16,21.94,156.9,25.92,190.19Z"/><path class="cls-2" d="M109.53,137.64h0a12.12,12.12,0,0,1,12.12,12.13h0a12.12,12.12,0,0,1-12.12,12.12h0a12.12,12.12,0,0,1-12.12-12.12h0A12.13,12.13,0,0,1,109.53,137.64Z"/><path class="cls-2" d="M190,137.64h0a12.13,12.13,0,0,1,12.12,12.13h0A12.12,12.12,0,0,1,190,161.89h0a12.13,12.13,0,0,1-12.13-12.12h0A12.13,12.13,0,0,1,190,137.64Z"/><path class="cls-2" d="M162.36,149.77a12.13,12.13,0,0,1-7.48,11.2,12.11,12.11,0,0,1-13.21-2.63,12.08,12.08,0,0,1-3.55-8.57h24.24Z"/></svg>