<?xml version="1.0" encoding="UTF-8"?>
<svg width="2000px" height="1500px" viewBox="0 0 2000 1500" version="1.1" xmlns="http://www.w3.org/2000/svg" xmlns:xlink="http://www.w3.org/1999/xlink">
    <title>Integrations</title>
    <defs>
        <linearGradient x1="50%" y1="0%" x2="50%" y2="100%" id="linearGradient-1">
            <stop stop-color="#0091E6" offset="0%"></stop>
            <stop stop-color="#0079BF" offset="100%"></stop>
        </linearGradient>
    </defs>
    <g id="Integrations" stroke="none" stroke-width="1" fill="none" fill-rule="evenodd">
        <g transform="translate(120.000000, 266.223859)" id="Shape">
            <path d="M383,886.776141 L817,886.776141 C814.25445,830.776141 788.190285,802.776141 738.807505,802.776141 C664.733334,802.776141 619.241002,874.213159 521.242597,844.776141 C455.910327,825.151463 409.829461,839.151463 383,886.776141 Z" fill="#FFFFFF"></path>
            <circle stroke="#B4B1FF" stroke-width="3" cx="880" cy="393" r="393"></circle>
            <line x1="687.462477" y1="78.9786396" x2="1116.39278" y2="78.9786396" stroke="#B4B1FF" stroke-width="3"></line>
            <circle stroke="#B4B1FF" stroke-width="3" cx="859.660346" cy="46.2195215" r="6.94338021"></circle>
            <line x1="877.341816" y1="53.1629017" x2="907.283034" y2="53.1629017" stroke="#B4B1FF" stroke-width="3"></line>
            <polygon fill="#FF5F13" points="353 151.777195 654 151.777195 654 274.777195 353 274.777195"></polygon>
            <polygon fill="#5F5AFF" points="1175.00011 51.7761413 1517.00011 51.7761413 1517.00011 330.776141 1175.00011 330.776141"></polygon>
            <path d="M1263.59685,324.034354 C1263.28422,326.323529 1263.00316,328.571765 1262.75365,330.779107 L1259.73639,330.779107 C1259.99697,328.438967 1260.29299,326.055463 1260.62444,323.628419 C1269.15345,261.175787 1240.92118,234.223419 1175.00166,242.290816 L1175.00166,239.276806 C1242.55724,231.184793 1272.39689,259.597118 1263.59685,324.034354 Z M1329.16826,111.220464 L1330.18587,111.854529 C1381.44231,143.435824 1382.51532,187.909385 1335.89915,231.671141 L1334.47194,232.997023 C1304.35817,260.684607 1293.81751,300.386775 1302.85597,330.777776 L1299.72292,330.777776 C1290.90413,299.707801 1301.57298,259.777659 1331.52783,231.637701 L1332.44145,230.788605 C1378.65427,188.299041 1378.58556,146.049131 1330.09637,115.335803 L1328.61217,114.408639 C1302.80345,98.50678 1290.19488,77.5706507 1290.8371,51.7769981 L1293.83378,51.7769981 C1293.20232,76.2107059 1304.96434,95.9686698 1329.16826,111.220464 Z M1458.7744,176.787174 C1463.41106,179.558666 1468.67266,187.637475 1475.7228,201.842075 L1476.67668,203.778308 L1477.43238,205.331958 C1479.55351,209.71623 1481.87251,214.702334 1484.76001,221.048927 L1495.62964,245.046205 L1497.1342,248.317866 L1498.02172,250.233519 C1505.22556,265.738238 1511.35317,277.828387 1517.00074,287.24923 L1517.00074,292.956864 L1516.32086,291.883688 C1509.84487,281.57017 1502.86269,267.869853 1494.41966,249.595332 L1490.31168,240.598858 L1482.36639,223.032598 L1480.368,218.653428 C1477.84064,213.142396 1475.75826,208.718711 1473.8071,204.739777 L1473.03558,203.175815 L1472.43419,201.970686 C1465.96703,189.08287 1461.05264,181.644037 1457.2352,179.362223 C1446.76817,173.105722 1435.77844,173.080016 1430.47374,178.982821 C1424.52415,185.603233 1426.16661,198.530378 1437.09519,215.588625 L1437.4292,216.106804 C1452.77009,239.762557 1460.23115,277.97344 1459.88887,330.775914 L1456.88862,330.775914 C1457.22467,279.086202 1450.03952,241.653237 1435.40706,218.511985 L1434.91215,217.739124 C1423.03192,199.419717 1421.11201,184.911889 1428.24239,176.977561 C1434.65629,169.840496 1447.20181,169.869841 1458.7744,176.787174 Z M1422.54879,259.688028 C1430.62019,271.62424 1425.57219,286.558361 1412.00261,298.075406 C1399.1219,309.007792 1382.36291,313.538722 1371.56477,307.772439 C1356.32216,299.632783 1358.32583,278.908644 1376.73937,246.045059 L1377.57384,244.565996 L1378.63443,244.180155 C1396.53178,237.826075 1411.30003,243.053051 1422.54879,259.688028 Z M1380.61945,246.66994 L1380.12968,246.835497 L1379.64068,247.005141 L1378.85149,248.417035 C1361.99397,278.792847 1360.03504,297.415911 1372.21082,304.692652 L1372.58411,304.909686 L1372.97792,305.126121 C1382.49146,310.206416 1398.01999,306.008149 1410.06134,295.788167 C1422.5988,285.147122 1427.11275,271.792938 1420.06364,261.368514 C1409.87888,246.307017 1397.01066,241.40759 1381.10245,246.512193 L1380.61945,246.66994 Z M1424.55924,99.7435294 C1438.85585,96.2197331 1448.62817,97.1553339 1455.57045,102.336318 C1461.12288,106.480067 1464.41171,112.407552 1468.60597,124.035552 L1471.8826,133.302396 L1472.84859,135.980634 L1472.84859,135.980634 L1473.03365,136.481687 C1474.78126,141.168876 1476.45501,145.13697 1478.33988,148.92247 C1481.27112,154.80944 1484.62659,160.040696 1488.67288,164.812196 L1489.25565,165.490732 C1496.88845,174.265803 1501.73443,185.381081 1505.38765,200.305397 L1505.58574,201.123237 C1506.27831,204.012805 1506.92658,207.021147 1507.61972,210.5048 L1508.22685,213.613884 L1509.65154,221.133143 L1510.14242,223.668251 L1510.5099,225.507137 C1512.61195,235.86667 1514.37111,241.689607 1517.00056,246.049197 L1517.00056,251.127485 C1516.3766,250.431419 1515.78579,249.66961 1515.22651,248.842617 C1511.56212,243.424182 1509.55023,236.513186 1506.83252,222.36343 L1505.28103,214.181468 L1504.837,211.89675 L1504.837,211.89675 L1504.52019,210.30454 L1504.18083,208.640124 C1503.67547,206.195481 1503.18393,203.973517 1502.66837,201.822472 C1499.15981,187.183962 1494.55992,176.363107 1487.39294,167.925898 L1486.99213,167.459607 C1482.50722,162.303527 1478.83329,156.644036 1475.65437,150.259638 C1473.84644,146.628676 1472.23369,142.848872 1470.57817,138.476028 L1469.89552,136.639793 L1468.92067,133.928385 C1467.92006,131.123364 1466.73124,127.74498 1466.22922,126.313074 L1465.36897,123.914161 C1461.56532,113.574824 1458.5398,108.295669 1453.77616,104.740588 C1447.66222,100.177786 1438.78236,99.3276303 1425.27719,102.656355 C1394.56651,110.225856 1378.53651,92.934877 1377.34789,51.7770179 L1380.33546,51.7770179 C1381.42131,91.0950726 1396.10952,106.755756 1424.55924,99.7435294 Z M1267.36617,134.866373 L1268.54178,135.759744 C1278.60136,143.516991 1281.9404,155.545318 1278.84442,169.219552 C1275.98643,181.84264 1267.78243,194.87182 1256.79241,204.37834 C1245.07785,214.511598 1231.40015,219.70385 1218.41977,218.151378 C1203.70501,216.391471 1190.708,206.219965 1180.75888,187.355219 L1180.439,186.743663 C1178.64222,183.280111 1176.82915,179.741807 1175.00018,176.131599 L1175.00018,169.461396 C1177.73501,174.920919 1180.43664,180.224324 1183.10199,185.362189 C1192.66277,203.791986 1204.96738,213.521072 1218.77604,215.172607 C1230.8375,216.615175 1243.70914,211.728914 1254.82976,202.109418 C1265.35155,193.007924 1273.20727,180.531862 1275.91847,168.55709 C1278.76946,155.964954 1275.77628,145.147808 1266.74089,138.159458 L1265.53707,137.244313 C1242.74774,119.681249 1232.11371,91.1531304 1233.55491,51.7776305 L1236.55448,51.7776305 C1235.11848,90.2891552 1245.41568,117.9462 1267.36617,134.866373 Z" fill="#FFFFFF" fill-rule="nonzero"></path>
            <path d="M456.38314,202.364402 C466.234913,205.57391 471.739212,211.811427 473.912675,221.025832 L474.058759,221.665325 C475.492402,228.155332 475.359058,234.375141 474.125111,247.725364 L473.748752,251.823886 L473.552275,254.09688 C473.057491,260.025228 472.934799,263.413944 473.097987,267.234081 C473.216295,270.003619 473.519255,272.509089 474.030639,274.778877 L470.961006,274.778877 C470.494131,272.503975 470.215058,270.038695 470.10072,267.362117 L470.067065,266.46009 C469.9344,262.278356 470.145675,258.395871 470.803655,251.075818 L471.306473,245.590038 L471.465544,243.753761 C472.368332,233.035004 472.336072,227.596112 471.06236,222.014318 L470.992804,221.714561 C469.054555,213.497352 464.286734,208.094418 455.453871,205.21685 C426.448877,195.767609 399.2895,218.73856 374.05386,274.775308 L370.766696,274.776484 C396.735544,216.578825 425.247694,192.221103 456.38314,202.364402 Z M505.903353,182.656576 L506.106374,183.040832 C508.67975,187.732919 509.519555,192.825741 508.939259,198.509978 C508.464382,203.161587 507.28379,207.377397 504.77713,214.388347 L503.468752,218.043032 L502.735826,220.131428 C500.901021,225.429695 500.406146,227.526817 500.217915,230.383128 C499.915485,234.972365 501.460011,238.1865 505.558435,240.62612 C509.437826,242.935359 513.767222,243.461139 522.379255,243.16645 L527.212841,242.971688 L529.088521,242.911694 C532.745515,242.815209 534.929694,242.901102 537.401714,243.248887 C541.898866,243.881584 545.416249,245.409729 548.101805,248.18398 C552.793545,253.030671 554.668432,261.516904 553.556937,274.777975 L550.548897,274.777975 C551.638145,262.225358 549.970794,254.427964 545.946308,250.270564 C542.069684,246.265908 537.370054,245.553853 525.506131,246.042081 L524.071613,246.103421 C513.817553,246.5391 508.81471,246.055717 504.023945,243.203976 C499.026684,240.229315 496.939724,236.044354 497.203855,230.546288 L497.224409,230.185856 C497.463823,226.55286 498.100477,224.183372 500.754962,216.719753 L501.736418,213.979857 C504.314101,206.82115 505.498436,202.675272 505.954771,198.205296 C506.458686,193.269242 505.78622,188.915628 503.704456,184.91118 L503.476007,184.483457 C496.102277,171.038792 510.2834,160.286536 545.096923,151.776558 L558.975455,151.776558 C517.096921,160.191923 499.820766,170.687415 505.903353,182.656576 Z M607.212494,184.336257 L607.321264,185.030705 L607.41916,185.721665 C608.384369,192.929323 607.547702,199.997172 604.198279,220.422274 L603.708971,223.430204 L603.295955,226.024876 C602.812996,229.101697 602.447385,231.607957 602.113966,234.149883 L602.059158,234.570279 C599.780207,252.15743 600.27275,265.113064 604.66412,274.77789 L601.375549,274.77789 C597.269195,264.827955 596.844519,251.927868 598.989827,234.92147 L599.25194,232.912398 L599.454939,231.432694 C599.825995,228.7818 600.256979,225.98205 600.838883,222.384854 L602.122266,214.481192 L602.771126,210.350592 C604.917072,196.408451 605.242204,190.867765 604.251934,184.821113 C602.561223,174.497527 594.759779,169.663945 583.243382,170.084706 C573.24812,170.449891 562.052881,175.006199 557.024888,180.487001 C551.352189,186.67057 546.462987,195.278314 544.798657,202.861272 C542.830718,211.82752 545.278164,218.697867 552.93753,222.685297 L553.294742,222.867283 C565.124945,228.765106 573.910007,246.071734 579.874748,274.77789 L576.809045,274.77789 L576.462793,273.159874 C570.758109,246.955199 562.642586,231.149987 552.315233,225.73571 L551.95624,225.552131 C542.669853,220.922501 539.596745,212.568188 541.868406,202.218132 C543.65552,194.075748 548.805616,185.008686 554.814214,178.458967 C560.421629,172.346562 572.380171,167.479601 583.133848,167.086706 C596.022742,166.6158 605.246288,172.330481 607.212494,184.336257 Z M629.366034,170.026759 L629.371795,170.677044 C629.371795,177.613258 630.314056,182.059536 632.051205,184.728571 C633.271733,186.603846 634.682673,187.512217 637.366958,188.434413 L638.478691,188.800886 C645.514408,191.081933 648.074097,194.343817 648.074097,205.010786 C648.074097,208.760126 647.150136,212.61362 645.373303,216.844995 L644.96125,217.806199 L644.632173,218.543928 C643.337286,221.394045 641.828293,224.096989 638.794565,229.189515 L637.720442,230.986702 C630.378701,243.237799 627.793482,249.135973 627.793482,256.309589 C627.793482,262.62807 630.464432,268.696082 636.406679,274.778006 L632.341955,274.778006 C627.190271,268.808246 624.793482,262.711545 624.793482,256.309589 C624.793482,248.63621 627.355004,242.555998 634.456968,230.60115 L636.652004,226.922969 L637.442335,225.585622 C640.113646,221.042874 641.350379,218.676684 642.607277,215.683489 C644.240916,211.793118 645.074097,208.318231 645.074097,205.010786 C645.074097,199.759289 644.262398,196.514977 642.763839,194.605321 C641.753306,193.317571 640.675972,192.70471 638.180346,191.861823 L636.750638,191.392608 C629.559412,189.006946 626.514443,184.52999 626.376706,171.614049 L626.371795,170.677044 C626.371795,162.157879 623.040901,155.850477 616.29232,151.775914 L621.475835,151.775914 C626.580841,156.160826 629.227225,162.240293 629.366034,170.026759 Z M436.290187,217.616614 L437.010395,217.88817 C444.117374,220.567867 449.862855,226.244255 454.242304,234.837772 C457.658953,241.542047 452.82894,248.563162 444.224477,252.000907 C435.598987,255.447054 426.473667,254.038417 422.302382,247.280493 C416.473176,237.836562 420.85255,228.171435 434.788891,218.624695 L435.649598,218.043332 L436.290187,217.616614 Z M436.662,220.977195 L436.063623,221.389238 L435.256966,221.957139 C423.482723,230.367541 420.211428,238.181299 424.855237,245.70476 C428.130324,251.010749 435.694352,252.178376 443.111433,249.215026 C450.293663,246.345507 453.996613,240.962738 451.569389,236.199949 C447.773672,228.751854 442.978518,223.773188 437.180224,221.198963 L436.774064,221.023266 L436.662,220.977195 Z M464.323243,170.747162 L464.131523,171.380031 C461.901092,179.058812 456.773836,183.676025 449.038619,185.817806 C443.172947,187.441933 436.416895,187.650176 426.321088,186.946029 L423.753747,186.754722 L417.472135,186.242678 L415.809809,186.114009 C406.504659,185.411439 402.292473,185.419994 398.146871,186.29598 L397.907739,186.347481 C392.043483,187.63412 389.195835,190.721218 389.094223,196.726376 L389.091401,197.063005 C389.091401,212.499869 376.97727,223.236391 353.001742,229.424581 L353.001742,226.335398 L354.298602,225.984209 C375.261417,220.172995 385.785326,210.68141 386.084821,197.638462 L386.091401,197.063005 C386.091401,189.35728 389.97489,185.016618 397.264821,183.417181 L397.991953,183.265518 L398.494424,183.170212 C402.939234,182.362339 407.616315,182.452865 417.685116,183.250027 L424.532217,183.806232 L425.845137,183.904513 L425.845137,183.904513 L427.179181,183.997583 L428.503328,184.081419 C437.193482,184.601151 443.164088,184.33151 448.238078,182.926589 C454.880687,181.087337 459.152742,177.323104 461.132265,170.937456 L461.250596,170.543217 C463.621069,162.382308 468.854524,156.134227 476.931202,151.776141 L484.309,151.776943 C473.736609,155.657282 467.085701,161.993411 464.323243,170.747162 Z M419.453044,151.777628 L423.145373,151.776823 L422.5359,152.640076 C416.773452,160.833913 409.596212,163.784635 399.770825,163.552386 L399.293331,163.538673 C397.367856,163.47371 395.678241,163.332179 392.946977,163.024227 L389.36909,162.61014 L387.558088,162.41483 C383.028096,161.951719 380.786316,161.951133 378.275263,162.432044 C374.491058,163.156787 371.752089,165.109358 369.731461,168.881474 L369.544121,169.240459 C365.387536,177.415456 359.790432,180.500579 353.000727,178.634032 L353.000727,175.55013 C358.706131,177.38528 363.187279,174.902723 366.685963,168.236923 L366.86994,167.880769 C369.333425,163.035691 372.909001,160.405256 377.710965,159.485594 L378.177025,159.400533 C381.186586,158.879239 383.867955,158.973134 389.636117,159.621146 L393.933224,160.115338 L394.865795,160.214447 C396.647196,160.397503 397.959086,160.49195 399.39449,160.540379 C408.166023,160.836319 414.360371,158.521547 419.453044,151.777628 Z" fill="#FFFFFE" fill-rule="nonzero"></path>
            <path d="M927.872744,508.219004 L858.151566,492.210709 L844.090929,354.719004 L879.800814,365.414031 C908.709001,374.071966 928.453159,400.746027 928.290189,430.922451 L927.872744,508.219004 Z" fill="#F9C21D"></path>
            <path d="M779.288213,348.065191 C806.25532,348.065191 827.449355,350.479491 844.097483,354.735807 L844.090929,354.719004 L844.560581,354.854982 C848.11368,355.775344 851.458124,356.780221 854.606026,357.863965 L879.800814,365.414031 C908.709001,374.071966 928.453159,400.746027 928.29119,430.922451 L927.872744,508.219004 L904.803709,502.919251 L905.080951,542.150625 C905.308898,572.664623 905.603924,608.969479 905.966029,651.065191 L660.839711,651.065191 L656.228703,526.914604 C655.931673,518.760315 655.652389,511.046028 655.390851,503.771743 L641.692353,506.918471 L641.272918,429.621918 C641.113568,399.747258 660.463203,373.305264 688.899798,364.378627 L689.764283,364.113498 L691.129154,363.702192 C710.012938,354.605615 737.975827,348.065191 779.288213,348.065191 Z" fill="#F9C21D"></path>
            <polygon fill="#273237" points="716.201672 442.577026 730.570572 504.468751 699.891193 504.468751"></polygon>
            <path d="M641.692353,506.918471 L716.201672,489.464688 L725.474168,353.418471 L689.764283,364.113498 C660.856096,372.771433 641.111939,399.445494 641.274908,429.621918 L641.692353,506.918471 Z" fill="#F9C21D"></path>
            <path d="M702,594.276141 C730.442665,594.276141 753.5,617.333477 753.5,645.776141 C753.5,647.561861 753.409114,649.326353 753.231717,651.065412 L750.214903,651.065412 C750.40332,649.328199 750.5,647.56346 750.5,645.776141 C750.5,618.990331 728.78581,597.276141 702,597.276141 C683.881371,597.276141 668.083276,607.211526 659.756601,621.93141 L659.558857,616.595804 C668.846021,603.113887 684.390928,594.276141 702,594.276141 Z M857,544.276141 C879.204015,544.276141 898.12606,558.327929 905.358581,578.023954 L905.641536,612.735464 L905.641536,612.735464 C898.630907,632.846505 879.500564,647.276141 857,647.276141 C828.557335,647.276141 805.5,624.218806 805.5,595.776141 C805.5,567.333477 828.557335,544.276141 857,544.276141 Z M857,547.276141 C830.21419,547.276141 808.5,568.990331 808.5,595.776141 C808.5,622.561952 830.21419,644.276141 857,644.276141 C883.78581,644.276141 905.5,622.561952 905.5,595.776141 C905.5,568.990331 883.78581,547.276141 857,547.276141 Z M844.097483,354.735807 L844.090929,354.719004 L844.560581,354.854982 L845.674259,355.148057 C834.59399,364.036673 827.5,377.689891 827.5,393 C827.5,419.78581 849.21419,441.5 876,441.5 C898.810853,441.5 917.943634,425.752301 923.119823,404.535423 C923.763591,406.086058 924.350359,407.664161 924.878777,409.266355 C918.069175,429.737555 898.758564,444.5 876,444.5 C847.557335,444.5 824.5,421.442665 824.5,393 C824.5,377.543294 831.3093,363.676985 842.091772,354.237201 C842.768578,354.400788 843.436612,354.566846 844.097483,354.735807 Z M732.5,378.776141 C732.5,407.218806 709.442665,430.276141 681,430.276141 C666.000778,430.276141 652.499202,423.863957 643.086951,413.631266 C643.363482,412.457202 643.670815,411.294752 644.00796,410.143766 C652.905359,420.625486 666.176008,427.276141 681,427.276141 C707.78581,427.276141 729.5,405.561952 729.5,378.776141 C729.5,369.465243 726.876281,360.767146 722.32785,353.380858 C723.348686,353.160401 724.386663,352.945582 725.439667,352.73681 C729.927501,360.376116 732.5,369.275709 732.5,378.776141 Z" fill="#FFFFFF"></path>
            <path d="M799.768338,328.651974 L799.767457,346.029974 L810.263616,349.29708 C811.845416,349.433346 813.400854,349.580513 814.930367,349.738376 L814.923592,350.747937 C814.923592,367.955117 801.113908,381.936874 783.972956,382.214788 L783.452525,382.219004 C766.245344,382.219004 752.263588,368.40932 751.985673,351.268368 L751.974342,349.125184 C753.951197,348.962822 755.966963,348.8181 758.022395,348.691726 C761.808158,347.537734 764.843901,346.912417 767.131676,346.815913 L767.131676,328.651974 L799.768338,328.651974 Z" fill="#905249"></path>
            <polygon fill="#273237" points="799.768338 328.651974 799.768317 342.630775 771.534317 331.355209 788.788317 328.651775"></polygon>
            <path d="M783.450007,276.776141 C795.353563,276.776141 805.003302,286.42588 805.003302,298.329437 L805.003302,325.239979 C805.003302,330.210542 800.973865,334.239979 796.003302,334.239979 L775.896712,334.239979 C768.164725,334.239979 761.896712,327.971966 761.896712,320.239979 L761.896712,298.329437 C761.896712,286.42588 771.546451,276.776141 783.450007,276.776141 Z" fill="#905249"></path>
            <path d="M761.830416,300.47385 C762.33999,300.47385 762.75308,300.886941 762.75308,301.396514 L762.75308,313.676315 L761.830416,313.676315 C758.184656,313.676315 755.229184,310.720842 755.229184,307.075082 C755.229184,303.429322 758.184656,300.47385 761.830416,300.47385 Z M805.069598,300.47385 C808.715358,300.47385 811.67083,303.429322 811.67083,307.075082 C811.67083,310.643273 808.839785,313.550237 805.301346,313.672323 L805.069598,313.676315 L804.146934,313.676315 L804.146934,300.47385 L805.069598,300.47385 Z" fill="#905249"></path>
            <path d="M785.706618,302.394217 L788.358619,314.149532 C787.984947,316.23784 786.792759,317.076325 784.782054,316.664988" stroke="#273237" stroke-width="2" stroke-linecap="round"></path>
            <polygon fill="#273237" points="879.320177 992.219004 789.5 992.219004 788.006974 722.065191 771.455487 992.219004 681.63531 992.219004 661.786153 651.065191 905.786153 651.065191"></polygon>
            <path d="M789.5,992.219004 L859.320177,992.219004 L860.200654,1000.93521 L866.906906,1000.47623 C878.87728,999.656979 889.245321,1008.69675 890.064573,1020.66712 C890.120211,1021.48006 890.130057,1022.29533 890.094119,1023.10906 L890.058581,1023.719 L794.198341,1023.719 C790.332348,1023.719 787.198341,1020.585 787.198341,1016.719 C787.198341,1016.49741 787.208863,1016.27594 787.229873,1016.05534 L789.5,992.219004 Z" fill="#151C24"></path>
            <polygon stroke="#B4B1FF" stroke-width="3" fill="#FFFFFF" points="1133.58053 469.845056 1081.58348 479.95226 1060.55617 371.776141 952.38005 392.803449 962.487254 444.800507 910.490196 454.907711 900.382992 402.910653 792.206874 423.93796 813.234181 532.114079 865.231239 522.006874 875.338443 574.003933 823.341385 584.111137 844.368692 692.287255 952.544811 671.259948 962.652015 723.257006 1014.64907 713.149802 1004.54187 661.152744 1112.71799 640.125436 1091.69068 531.949318 1143.68774 521.842114"></polygon>
            <path d="M998.801961,480.545618 L1037.06306,496.535325 L1006.52101,524.322527 L968.317094,508.657093 L998.801961,480.545618 Z M930.056,492.667386 L968.317094,508.657093 L937.77505,536.444295 L899.571133,520.778861 L930.056,492.667386 Z M1044.78211,540.312234 L1014.29724,568.423709 L976.036145,552.434002 L1006.52101,524.322527 L1044.78211,540.312234 Z M937.77505,536.444295 L976.036145,552.434002 L945.551278,580.545477 L907.290184,564.55577 L937.77505,536.444295 Z M1015.55516,575.557724 L985.070292,603.669199 L946.809198,587.679492 L977.351242,559.89229 L1015.55516,575.557724 Z" fill="#0062FF" fill-rule="nonzero"></path>
            <path d="M1075.59499,477.870075 C1073.46113,478.441843 1071.26778,477.175513 1070.69601,475.041648 L1069.66337,471.187771 C1069.0916,469.053906 1070.35793,466.860559 1072.4918,466.288791 L1077.80439,464.865287 L1077.79912,464.845635 L1072.48653,466.26914 C1070.35267,466.840907 1068.15932,465.574577 1067.58755,463.440712 L1066.55491,459.586835 C1065.98314,457.452971 1067.24947,455.259623 1069.38333,454.687856 L1074.69593,453.264351 L1074.69066,453.244699 L1069.37807,454.668204 C1067.2442,455.239971 1065.05086,453.973641 1064.47909,451.839777 L1063.44645,447.985899 C1062.87468,445.852035 1064.14101,443.658687 1066.27487,443.08692 C1064.14101,443.658687 1061.94766,442.392357 1061.37589,440.258493 L1060.34325,436.404615 C1059.77148,434.270751 1061.03781,432.077403 1063.17168,431.505636 L1069.4502,429.823312 C1080.11952,426.964476 1091.08626,433.296125 1093.94509,443.965448 L1096.01565,451.692854 C1098.87448,462.362176 1092.54283,473.328915 1081.87351,476.187752 L1075.59499,477.870075 Z" fill="#905249"></path>
            <path d="M804.802352,464.071746 L837.705285,469.605371 C839.733789,469.946525 841.172847,471.770556 841.032568,473.822759 L840.358685,483.681288 C840.212595,485.818497 838.41328,487.448468 836.294722,487.407922 L836.041592,487.395164 L816.412368,485.788031 C815.526984,485.715541 814.710634,486.269493 814.450906,487.119023 C814.205202,487.922686 814.657517,488.773366 815.461179,489.01907 L835.217068,495.059051 C836.541979,495.464117 837.287661,496.866541 836.882595,498.191452 C836.470749,499.538539 835.080226,500.33109 833.711297,499.998984 L813.592705,495.118156 C812.762894,494.916842 811.919993,495.397266 811.670342,496.213837 C811.412604,497.056862 811.792252,497.963862 812.573665,498.371923 L829.876568,507.407665 C831.174029,508.085211 831.707143,509.650752 831.119803,510.969752 L831.014569,511.181473 C830.244539,512.578433 828.534421,513.155019 827.075743,512.509493 L808.599746,504.333088 L789.482772,504.80479 L785.310317,507.98395 C717.729236,559.363716 678.029517,583.964219 666.211162,581.785458 C655.841851,579.873835 655.427583,555.144645 648.633781,507.372483 C648.538367,506.701561 648.454448,506.037876 648.382022,505.381428 L709.944022,491.246778 L710.119526,502.410384 L780.079154,478.201699 L799.772518,465.141124 C801.25274,464.159445 803.050789,463.777167 804.802352,464.071746 Z" fill="#905249"></path>
            <path d="M681.63531,992.219004 L751.455487,992.219004 L752.335964,1000.93521 L759.042216,1000.47623 C771.01259,999.656979 781.380631,1008.69675 782.199883,1020.66712 C782.255521,1021.48006 782.265367,1022.29533 782.229429,1023.10906 L782.193891,1023.719 L686.333651,1023.719 C682.467658,1023.719 679.333651,1020.585 679.333651,1016.719 C679.333651,1016.49741 679.344173,1016.27594 679.365183,1016.05534 L681.63531,992.219004 Z" fill="#151C24"></path>
            <line x1="716.201672" y1="489.464688" x2="716.201672" y2="431.469004" stroke="#FFFFFF" stroke-width="2" stroke-linecap="round"></line>
            <polygon stroke="#B4B1FF" stroke-width="3" points="1457 1023.77614 1457 622.098464 1607.28613 622.098464 1607.28613 742.321686 1673.02398 742.321686 1673.02398 866.041956 1736.29313 866.041956 1736.29313 1023.77614"></polygon>
            <polygon stroke="#B4B1FF" stroke-width="3" points="1282 622.098464 1457 622.098464 1457 1024.03525 1282 1024.03525"></polygon>
            <path d="M21.6532812,650.879552 L23.2204071,690.851486 C23.4487103,696.674706 24.1856139,702.466824 25.4227035,708.161701 L44.4477581,795.742545 C47.6711482,810.581253 47.4729261,825.959179 43.8681274,840.709871 L8.39938767,985.846538 L106.992852,985.706622 L155.226891,828.900871 C157.395563,821.850659 158.777526,814.582142 159.347557,807.22798 L171.466347,650.879552 L21.6532812,650.879552 Z" fill="#273237"></path>
            <path d="M209.032421,523.264141 L370.16946,507.943618 L402.596811,515.758326 L423.831215,518.945373 C425.04663,519.127793 426.188129,518.314678 426.412903,517.106378 C426.627985,515.950174 425.971979,514.820597 424.886548,514.422071 L424.690633,514.359475 L403.697564,508.621242 C403.279348,508.506927 402.997294,508.116655 403.019985,507.683692 L403.028544,507.606848 C403.083238,507.287263 403.359015,507.060877 403.672134,507.057729 L403.790946,507.067266 L433.248748,512.108653 C434.646499,512.347863 435.974338,511.411192 436.217889,510.014191 C436.455409,508.651788 435.664674,507.331418 434.377006,506.884792 L434.180195,506.824455 L405.652401,499.197886 C405.191624,499.074703 404.87989,498.645894 404.904852,498.16959 C404.926134,497.763494 405.240075,497.442127 405.631588,497.399154 L405.76467,497.395406 L435.019656,498.928595 C436.655601,499.014331 438.051299,497.757638 438.137035,496.121694 C438.220303,494.532843 437.100987,493.14713 435.555996,492.875473 L435.34275,492.84542 L406.028704,489.723383 C405.648826,489.682925 405.36694,489.352416 405.386934,488.970914 C405.404437,488.636931 405.659659,488.37177 405.980046,488.330799 L406.102909,488.326247 L434.976289,489.839436 C436.898475,489.940174 438.538379,488.463598 438.639116,486.541412 C438.737173,484.670372 437.408973,483.041586 435.584653,482.740077 L435.354097,482.709379 L405.871765,479.719788 L407.392953,469.340273 L406.822484,469.157065 C402.436236,467.804971 397.766153,467.660634 393.304779,468.739277 L392.724085,468.886907 L372.150138,474.375544 L226.969096,460.938891 C215.513902,459.878737 204.024368,442.569171 194.230801,448.605016 L161.431242,488.81962 L209.032421,523.264141 Z" fill="#FF8B98"></path>
            <path d="M168.390741,368.504052 L165.479284,389.212525 L177.439944,394.863655 C179.302086,395.290952 168.220173,433.2316 147.747489,430.692072 L147.126607,430.609936 C126.621545,427.728138 130.86453,385.420078 133.606935,385.688227 L135.085076,359.411744 L168.390741,368.504052 Z" fill="#FF8B98"></path>
            <path d="M164.782809,304.957762 C178.967769,306.951328 188.850846,320.066614 186.85728,334.251573 L185.378196,344.77351 L189.50148,354.615162 C190.015084,355.841129 189.437599,357.251329 188.211632,357.764933 C188.021344,357.844652 187.821594,357.899572 187.617298,357.928343 L183.447024,358.51451 L181.968024,369.040432 C181.135572,374.963639 175.659028,379.090512 169.735821,378.258059 C169.462075,378.219587 169.189903,378.170648 168.919902,378.111349 L148.452878,373.616339 C140.290054,371.823603 134.675393,364.317664 135.261011,355.980839 L137.281243,327.220891 C138.217539,313.891815 149.781908,303.845482 163.110984,304.781778 C163.670129,304.821055 164.227741,304.879752 164.782809,304.957762 Z" fill="#FF8B98"></path>
            <path d="M163.201151,323.897039 L163.473845,324.338925 C165.47792,327.586417 168.907119,329.687107 172.710583,329.99725 L187.258253,331.183498 C193.164397,327.234281 194.751849,322.230627 192.02061,316.172535 C187.923751,307.085397 165.952371,294.219195 151.583581,302.801646 C129.618081,305.980892 122.385208,316.703031 129.884962,334.96806 L135.085076,359.411744 L154.657441,339.6648 L156.574328,337.29821 C159.622716,333.534669 161.830791,329.165408 163.053461,324.483841 L163.201151,323.897039 Z" fill="#273237"></path>
            <path d="M153.49032,334.248043 C154.113533,334.33563 154.547744,334.911847 154.460157,335.535061 L152.349469,350.553387 L151.221042,350.394796 C146.762239,349.768153 143.65566,345.645583 144.282304,341.186781 C144.908948,336.727978 149.031517,333.621399 153.49032,334.248043 Z" fill="#FF8B98"></path>
            <path d="M21.6532812,650.879552 L239.782425,650.879552 C223.351016,543.909464 215.135312,480.538061 215.135312,460.765344 C215.135312,431.106268 194.10464,383.241599 138.217853,383.241599 C82.3310661,383.241599 40.0015158,447.330814 35.080668,510.568487 C31.8001028,552.726935 27.3243072,599.49729 21.6532812,650.879552 Z" fill="#00D3BD"></path>
            <path d="M157.856663,551.322444 L218.630645,514.133944 L188.243654,411.590482 L155.010898,428.514221 C139.399164,436.464476 131.50324,454.274125 136.094387,471.181347 L157.856663,551.322444 Z" fill="#00D3BD"></path>
            <path d="M214.593691,530.950795 L223.572547,540.245648 L224.259441,545.27593 L224.259441,545.27593 L214.520084,535.192366 L159.735165,588.097548 L212.639652,642.881748 L235.243167,621.050816 L235.792165,624.6907 L235.792165,624.6907 L212.565875,647.124271 L155.493045,588.023625 L214.593691,530.950795 Z M33.6509413,528.325107 L105.480363,539.702619 L90.9319579,631.557635 L24.861234,621.092157 L25.1739407,618.103558 L25.1739407,618.103558 L88.4376741,628.124391 L102.047473,542.195505 L33.4004757,531.322211 L33.6509413,528.325107 Z M163.432054,400.355608 L192.482796,404.95574 C193.598872,406.109078 194.669737,407.292414 195.696249,408.501647 L165.925816,403.787976 L154.011923,479.009332 L217.213482,489.018118 L217.545709,492.106933 L217.545709,492.106933 L150.579466,481.503653 L163.432054,400.355608 Z M106.20061,390.554447 L130.695811,432.980835 L59.543539,474.060618 L48.8263307,455.499169 C49.3182277,454.363396 49.8217537,453.234727 50.3367293,452.113652 L60.6414989,469.96234 L126.597128,431.88284 L103.502847,391.882711 C104.098175,391.576319 104.696308,391.277349 105.297202,390.98592 L106.20061,390.554447 Z" fill="#00C0AC"></path>
            <path d="M239.782425,650.879552 L285.586759,805.073071 C286.415339,807.862364 287.121782,810.686492 287.704071,813.537394 L322.869162,985.706622 L221.415795,985.706622 L183.506505,817.827471 C182.233378,812.189498 179.690905,806.916236 176.072574,802.40899 L97.6717692,704.74746 C85.5699706,689.672613 78.9015507,670.968175 78.7281612,651.652498 L78.7246921,650.879552 L239.782425,650.879552 Z" fill="#273237"></path>
            <path d="M219.68521,985.846538 L303.212443,985.846538 L308.072134,991.02245 C311.311065,994.47214 316.100673,996.21316 321.372435,995.857105 C336.077949,994.863892 346.51409,1005.82317 344.682209,1020.33533 C344.557801,1021.32089 344.377329,1022.30927 344.141715,1023.29579 L343.954679,1024.03525 L231.612166,1024.03525 C228.003727,1024.03525 225.234097,1021.75338 224.707641,1018.34668 L219.68521,985.846538 Z" fill="#151C24"></path>
            <path d="M8.39938767,985.846538 L88.8727125,985.846538 L91.6012644,991.02245 C93.4198144,994.47214 97.3772206,996.21316 102.590618,995.857105 C117.133323,994.863892 123.05172,1005.82317 115.809727,1020.33533 C115.317903,1021.32089 114.771001,1022.30927 114.171677,1023.29579 L113.712397,1024.03525 L5.47733041,1024.03525 C2.00082285,1024.03525 0.193664437,1021.75338 0.972190521,1018.34668 L8.39938767,985.846538 Z" fill="#151C24"></path>
            <path d="M157.856663,551.322444 L212.992852,517.060576 L233.727239,551.322444 L352.827978,629.244799 L340.802938,660.554652 L199.847131,604.42602 C191.590907,601.13839 184.626371,595.257246 180.002374,587.66828 L157.856663,551.322444 Z" fill="#FF8B98"></path>
            <polygon stroke="#B4B1FF" stroke-width="3" fill="#FFFFFF" points="531.445142 409.776141 521.337937 461.773199 413.161819 440.745892 392.134512 548.92201 444.13157 559.029215 434.024365 611.026273 382.027307 600.919068 361 709.095187 469.176119 730.122494 479.283323 678.125436 531.280381 688.232641 521.173177 740.229699 629.349295 761.257006 650.376602 653.080887 702.37366 663.188092 712.480865 611.191034 660.483807 601.083829 681.511114 492.907711 573.334995 471.880404 583.4422 419.883345"></polygon>
            <path d="M533.564008,518.892032 C527.044879,517.747502 520.836823,522.107098 519.692289,528.626226 C518.538126,535.143656 522.885538,541.364467 529.402968,542.518633 L541.196576,544.598164 L543.278655,532.790106 C544.415062,526.372944 540.21787,520.243345 533.86344,518.949139 L533.564008,518.892032 L533.564008,518.892032 Z M528.008399,550.399457 L496.568421,544.855741 C490.049293,543.71121 483.836419,548.069957 482.691875,554.589083 C481.532904,561.105666 485.880317,567.326476 492.396897,568.48546 L523.841692,574.030025 C530.360821,575.174556 536.573695,570.815809 537.718229,564.296681 C538.873241,557.774433 534.525828,551.553623 528.008399,550.399457 Z" fill="#36C5F0" fill-rule="nonzero"></path>
            <path d="M600.608668,575.380995 C601.762831,568.863565 597.415419,562.642755 590.897989,561.488589 C584.37886,560.344058 578.165986,564.702805 577.021452,571.221933 L574.937674,583.039626 L586.731282,585.119157 C593.250411,586.263688 599.463285,581.904941 600.608668,575.380995 Z M569.163873,569.836429 L574.719482,538.329005 C575.872796,531.816392 571.530201,525.596431 565.013621,524.437448 C558.494492,523.292917 552.281618,527.651664 551.137074,534.17079 L545.581465,565.678215 C544.422494,572.194797 548.769907,578.415607 555.286487,579.574591 C561.805616,580.719122 568.01849,576.360375 569.163873,569.836429 Z" fill="#2EB67D" fill-rule="nonzero"></path>
            <path d="M544.175269,642.58944 C550.694398,643.733971 556.907272,639.375224 558.051806,632.856096 C559.205969,626.338666 554.858556,620.117856 548.341126,618.96369 L536.547518,616.884158 L534.46459,628.697034 C533.311276,635.209646 537.658689,641.430457 544.175269,642.58944 Z M549.731727,611.077198 L581.176523,616.621764 C587.695651,617.766295 593.908525,613.407548 595.053069,606.888422 C596.21204,600.371839 591.864627,594.151029 585.348047,592.992045 L553.903252,587.447479 C547.384123,586.302948 541.171249,590.661695 540.026715,597.180823 C538.889472,603.602729 543.081981,609.731577 549.432479,611.020349 L549.731727,611.077198 Z" fill="#ECB22E" fill-rule="nonzero"></path>
            <path d="M477.136275,586.096509 C475.982113,592.61394 480.329525,598.83475 486.846955,599.988916 C493.366083,601.133447 499.578957,596.7747 500.723492,590.255572 L502.80642,578.442697 L491.012812,576.363165 C484.493684,575.218634 478.28081,579.577381 477.136275,586.096509 Z M508.581061,591.641073 L503.025452,623.148498 C501.866481,629.66508 506.213894,635.885891 512.730474,637.044875 C519.249602,638.189405 525.462476,633.830659 526.60702,627.311532 L532.16178,595.808925 C533.320751,589.292343 528.973338,583.071532 522.456758,581.912549 C516.034016,580.780046 509.916696,584.98911 508.637464,591.341736 L508.581061,591.641073 L508.581061,591.641073 Z" fill="#E01E5A" fill-rule="nonzero"></path>
            <path d="M404.695494,468.647222 L411.677253,470.049993 L434.551458,477.903334 C436.084799,478.429772 436.901055,480.099553 436.374617,481.632895 C436.279995,481.908497 436.144865,482.168474 435.97367,482.404275 C434.525063,484.399565 432.142801,485.4976 429.684803,485.302945 L410.318582,483.769287 C406.898993,491.262903 401.942425,494.997945 395.448877,494.974524 C388.955329,494.950883 381.138527,494.054148 371.998469,492.284209 L387.451993,474.520405 C391.726894,469.606412 398.309882,467.364229 404.695494,468.647222 Z" fill="#FF8B98"></path>
            <path d="M352.827978,629.244799 L362.929422,622.429222 C366.844529,619.787648 371.692352,618.939549 376.261455,620.082559 L376.663857,620.188585 L375.687976,630.633488 L405.286366,632.075996 C407.235727,632.171001 408.767437,633.779179 408.767437,635.730853 C408.767437,637.655677 407.207059,639.216055 405.282235,639.216055 L376.369231,639.216055 C375.992984,639.216055 375.687976,639.521063 375.687976,639.89731 C375.687976,640.279336 375.986773,640.594639 376.368247,640.61516 L405.805515,642.19874 C407.466464,642.288091 408.767437,643.660931 408.767437,645.324282 C408.767437,646.962472 407.439422,648.290487 405.801232,648.290487 L376.506099,648.290487 C376.054262,648.290487 375.687976,648.656773 375.687976,649.10861 C375.687976,649.585568 376.021726,649.997474 376.488317,650.096373 L405.376159,656.219461 C406.796699,656.520559 407.752184,657.856565 407.577999,659.298181 C407.407895,660.706013 406.130897,661.710895 404.722543,661.545165 L375.041265,658.05239 C374.679005,658.00976 374.350777,658.268872 374.308148,658.631132 C374.305133,658.656751 374.303622,658.682524 374.303622,658.70832 C374.303622,659.141877 374.605715,659.516852 375.02934,659.609122 L396.293955,664.240799 C397.510646,664.505809 398.320978,665.659345 398.157626,666.893801 C397.996397,668.112209 396.899019,668.983951 395.675722,668.865391 L374.303622,666.794035 L357.651708,670.799879 C353.691139,671.752647 349.528304,670.438656 346.832423,667.38479 L340.802938,660.554652 L352.827978,629.244799 Z" fill="#FF8B98"></path>
            <polyline stroke="#273237" stroke-width="2" stroke-linecap="round" stroke-linejoin="round" points="191.519127 423.294122 218.630645 514.133944 157.856663 551.322444 119.583948 485.297478"></polyline>
            <path d="M1536.8938,514.237747 L1536.8938,537.918573 C1536.8938,581.732699 1501.37543,617.251066 1457.5613,617.251066 C1454.57719,617.251066 1451.59545,617.082693 1448.6303,616.746751 L1369.46397,607.777434 C1364.19266,607.18021 1359.24607,610.430371 1357.70192,615.505706 L1294.3668,823.676141 L1186.33015,780.235517 L1238.46263,589.641946 C1246.93177,558.679203 1271.94003,535.010371 1303.32165,528.256728 L1375.71874,512.676141 L1536.8938,514.237747 Z" fill="#273237"></path>
            <path d="M1632.87085,514.237747 L1632.87085,540.483252 C1632.87085,588.125267 1594.24936,626.746751 1546.60735,626.746751 L1471.34385,626.746751 C1465.26872,626.746751 1460.34385,631.671618 1460.34385,637.746751 L1460.34385,823.676141 L1338.82066,823.676141 L1330.90979,611.346214 C1329.35616,569.64651 1357.96174,532.848658 1398.75636,524.069243 L1451.69579,512.676141 L1632.87085,514.237747 Z" fill="#273237"></path>
            <path d="M1460.57873,823.276141 L1358.88634,823.276141 L1360.51691,835.971203 L1350.74932,835.30271 C1333.31459,834.109477 1318.21364,847.275812 1317.02041,864.710543 C1316.936,865.943919 1316.92395,867.180969 1316.98427,868.415333 L1317.02914,869.155577 L1453.57873,869.155577 C1457.44472,869.155577 1460.57873,866.021571 1460.57873,862.155577 L1460.57873,823.276141 Z" fill="#151C24"></path>
            <path d="M1294.36017,823.276141 L1200.07262,785.181501 L1196.82881,797.562981 L1188.02288,793.284161 C1172.30467,785.64665 1153.37112,792.197349 1145.73361,807.915557 C1145.19331,809.027501 1144.71874,810.169963 1144.31226,811.337038 L1144.07656,812.04019 L1270.68314,863.192568 C1274.26763,864.640794 1278.34745,862.909013 1279.79567,859.324527 L1294.36017,823.276141 Z" fill="#151C24"></path>
            <path d="M1518.14066,258.398468 C1448.12324,258.398468 1410.97938,273.260964 1392.98257,293.48737 C1388.54687,298.472609 1380.23175,316.967753 1379.51151,320.642535 L1341.57297,447.802809 C1337.51281,461.410402 1345.25253,475.732945 1358.86013,479.793104 C1361.24576,480.504917 1363.72213,480.866484 1366.2117,480.866484 L1392.0002,480.864295 L1393.59443,494.121212 L1394.70599,503.25185 C1395.17726,507.105065 1395.65869,511.019257 1396.15027,514.994427 L1632.76345,514.426571 L1633.54143,480.864626 L1652.52059,480.866484 C1655.01015,480.866484 1657.48652,480.504917 1659.87215,479.793104 C1673.34367,475.773546 1681.06409,461.695826 1677.27758,448.21124 L1677.15931,447.802809 L1640.14916,323.761867 C1638.96129,308.029175 1624.44124,258.398468 1518.14066,258.398468 Z" fill="#FF0033"></path>
            <path d="M1508.85228,258.488572 L1508.8547,281.383462 L1468.99553,281.384609 L1468.99361,261.373555 C1467.83274,261.530507 1466.68563,261.693267 1465.55213,261.861737 L1465.55357,281.384609 L1425.69231,281.384609 L1425.69136,271.980104 C1424.51747,272.444435 1423.36992,272.918613 1422.24825,273.402307 L1422.25035,281.384609 L1407.22243,281.383771 C1405.51224,282.502114 1403.89208,283.650591 1402.35838,284.826727 L1422.25035,284.826563 L1422.25035,324.687832 L1382.09422,324.687832 L1382.0933,313.64604 L1381.65011,314.693862 L1381.10979,316.010964 C1380.26084,318.121558 1379.67953,319.785294 1379.51151,320.642535 L1378.65245,323.523703 L1378.65227,324.687832 L1378.30545,324.687703 L1377.27845,328.129703 L1378.65227,328.129786 L1378.65227,367.989907 L1365.38645,367.989703 L1364.35945,371.431703 L1378.65227,371.431861 L1378.65227,411.293129 L1352.46645,411.292703 L1351.42645,414.779703 L1378.65227,414.780058 L1378.65227,454.640179 L1340.49823,454.639982 C1340.47441,455.79784 1340.52963,456.947498 1340.66017,458.082091 L1378.65227,458.082133 L1378.65245,480.864703 L1382.09445,480.864703 L1382.09422,458.082133 L1422.25035,458.082133 L1422.25035,497.943401 L1394.05824,497.941579 L1394.47775,501.384039 L1422.25035,501.385355 L1422.25045,514.930703 L1425.69245,514.922703 L1425.69231,501.385355 L1465.55357,501.385355 L1465.55445,514.826703 L1468.99645,514.818703 L1468.99553,501.385126 L1508.8547,501.385126 L1508.85545,514.722703 L1512.29845,514.714703 L1512.2978,501.385126 L1552.45278,501.385126 L1552.45345,514.618703 L1555.89545,514.610703 L1555.89473,501.385355 L1596.05086,501.385355 L1596.05145,514.513703 L1599.49345,514.505703 L1599.49282,501.385355 L1633.06645,501.384703 L1633.14645,497.942703 L1599.49282,497.943401 L1599.49282,458.082133 L1639.35408,458.082133 L1639.35445,480.864703 L1642.79645,480.864703 L1642.79604,458.082133 L1678.07205,458.082582 C1678.20264,456.947793 1678.25788,455.797933 1678.23405,454.639871 L1642.79604,454.640179 L1642.79604,414.780058 L1667.30645,414.779703 L1666.26645,411.292703 L1642.79604,411.293129 L1642.79604,371.431861 L1654.37245,371.431703 L1653.34545,367.989703 L1642.79604,367.989907 L1642.79645,332.633703 L1640.14916,323.761867 C1640.03394,322.23582 1639.79328,320.390837 1639.35558,318.303149 L1639.35408,324.687832 L1599.49282,324.687832 L1599.49282,284.826563 L1618.1381,284.82588 C1616.73684,283.663132 1615.24867,282.513877 1613.66838,281.383679 L1599.49282,281.384609 L1599.49458,273.105953 C1598.37763,272.574594 1597.23054,272.052773 1596.0525,271.541339 L1596.05086,281.384609 L1555.89473,281.384609 L1555.90005,260.840133 C1554.7664,260.680356 1553.61768,260.52772 1552.45367,260.382435 L1552.45278,281.384609 L1512.2978,281.383462 L1512.29612,258.433703 L1510.5672,258.458001 L1508.85228,258.488572 Z M1425.69231,458.082133 L1465.55357,458.082133 L1465.55357,497.943401 L1425.69231,497.943401 L1425.69231,458.082133 Z M1512.2978,458.081903 L1552.45278,458.081903 L1552.45278,497.943401 L1512.2978,497.943401 L1512.2978,458.081903 Z M1555.89473,458.082133 L1596.05086,458.082133 L1596.05086,497.943401 L1555.89473,497.943401 L1555.89473,458.082133 Z M1468.99553,458.081903 L1508.8547,458.081903 L1508.8547,497.943401 L1468.99553,497.943401 L1468.99553,458.081903 Z M1512.2978,414.779828 L1552.45278,414.779828 L1552.45278,454.640179 L1512.2978,454.640179 L1512.2978,414.779828 Z M1555.89473,414.780058 L1596.05086,414.780058 L1596.05086,454.640179 L1555.89473,454.640179 L1555.89473,414.780058 Z M1599.49282,414.780058 L1639.35408,414.780058 L1639.35408,454.640179 L1599.49282,454.640179 L1599.49282,414.780058 Z M1382.09422,414.780058 L1422.25035,414.780058 L1422.25035,454.640179 L1382.09422,454.640179 L1382.09422,414.780058 Z M1425.69231,414.780058 L1465.55357,414.780058 L1465.55357,454.640179 L1425.69231,454.640179 L1425.69231,414.780058 Z M1468.99553,414.779828 L1508.8547,414.779828 L1508.8547,454.640179 L1468.99553,454.640179 L1468.99553,414.779828 Z M1599.49282,371.431861 L1639.35408,371.431861 L1639.35408,411.293129 L1599.49282,411.293129 L1599.49282,371.431861 Z M1555.89473,371.431861 L1596.05086,371.431861 L1596.05086,411.293129 L1555.89473,411.293129 L1555.89473,371.431861 Z M1512.2978,371.431861 L1552.45278,371.431861 L1552.45278,411.293129 L1512.2978,411.293129 L1512.2978,371.431861 Z M1382.09422,371.431861 L1422.25035,371.431861 L1422.25035,411.293129 L1382.09422,411.293129 L1382.09422,371.431861 Z M1425.69231,371.431861 L1465.55357,371.431861 L1465.55357,411.293129 L1425.69231,411.293129 L1425.69231,371.431861 Z M1468.99553,371.431861 L1508.8547,371.431861 L1508.8547,411.293129 L1468.99553,411.293129 L1468.99553,371.431861 Z M1555.89473,328.129786 L1596.05086,328.129786 L1596.05086,367.989907 L1555.89473,367.989907 L1555.89473,328.129786 Z M1599.49282,328.129786 L1639.35408,328.129786 L1639.35408,367.989907 L1599.49282,367.989907 L1599.49282,328.129786 Z M1425.69231,328.129786 L1465.55357,328.129786 L1465.55357,367.989907 L1425.69231,367.989907 L1425.69231,328.129786 Z M1382.09422,328.129786 L1422.25035,328.129786 L1422.25035,367.989907 L1382.09422,367.989907 L1382.09422,328.129786 Z M1508.8547,328.128638 L1508.8547,367.989907 L1468.99553,367.989907 L1468.99553,328.129786 L1508.8547,328.128638 Z M1512.2978,328.128638 L1552.45278,328.129786 L1552.45278,367.989907 L1512.2978,367.989907 L1512.2978,328.128638 Z M1555.89473,284.826563 L1596.05086,284.826563 L1596.05086,324.687832 L1555.89473,324.687832 L1555.89473,284.826563 Z M1512.2978,284.825416 L1552.45278,284.826563 L1552.45278,324.687832 L1512.2978,324.686684 L1512.2978,284.825416 Z M1425.69231,284.826563 L1465.55357,284.826563 L1465.55357,324.687832 L1425.69231,324.687832 L1425.69231,284.826563 Z M1508.8547,284.825416 L1508.8547,324.686684 L1468.99553,324.687832 L1468.99553,284.826563 L1508.8547,284.825416 Z" fill="#FF6363"></path>
            <polygon fill="#273237" points="1580.73992 367.497046 1580.73992 410.800269 1594.96733 410.800269"></polygon>
            <line x1="1633.85444" y1="480.797124" x2="1555.27562" y2="480.797124" stroke="#273237" stroke-width="2" stroke-linecap="round" stroke-linejoin="round"></line>
            <polyline stroke="#273237" stroke-width="2" stroke-linecap="round" stroke-linejoin="round" points="1620.02933 410.800269 1541.45051 410.800269 1541.45051 480.797124"></polyline>
            <polygon stroke="#B4B1FF" stroke-width="3" fill="#FFFFFF" points="1526.69638 534.150903 1477.5832 514.30789 1436.30125 616.484309 1334.12483 575.202356 1353.96784 526.089176 1304.85466 506.246163 1285.01165 555.359343 1182.83523 514.07739 1224.11718 411.900971 1273.23036 431.743984 1293.07338 382.630804 1243.9602 362.787791 1285.24215 260.611372 1387.41857 301.893325 1407.26158 252.780145 1456.37476 272.623158 1436.53175 321.736338 1538.70817 363.018291 1497.42621 465.19471 1546.5394 485.037723"></polygon>
            <path d="M1436.99853,393.352088 L1369.45898,366.064339 C1360.45776,362.427609 1350.21268,366.776389 1346.57595,375.777611 L1319.2882,443.31716 C1315.65147,452.318381 1320.00025,462.563465 1329.00147,466.200195 L1396.54102,493.487944 C1405.54224,497.124674 1415.78732,492.775893 1419.42405,483.774672 L1446.7118,416.235123 C1450.34853,407.233901 1445.99975,396.988817 1436.99853,393.352088 Z" fill="url(#linearGradient-1)" fill-rule="nonzero"></path>
            <path d="M1383.63734,386.935393 L1368.74213,380.917338 C1364.42154,379.171708 1359.5039,381.259122 1357.75827,385.579709 L1346.37959,413.742918 C1344.63396,418.063505 1346.72138,422.981145 1351.04196,424.726775 L1365.93717,430.74483 C1370.25776,432.49046 1375.1754,430.403046 1376.92103,426.08246 L1388.29971,397.91925 C1390.04534,393.598663 1387.95792,388.681023 1383.63734,386.935393 Z" fill="#FFFFFF" fill-rule="nonzero"></path>
            <path d="M1427.19643,404.534411 L1412.30122,398.516356 C1407.98064,396.770726 1403.063,398.85814 1401.31737,403.178726 L1379.82431,456.3759 C1378.07868,460.696487 1380.1661,465.614127 1384.48668,467.359757 L1399.38189,473.377812 C1403.70248,475.123442 1408.62012,473.036028 1410.36575,468.715441 L1431.8588,415.518268 C1433.60443,411.197681 1431.51702,406.280041 1427.19643,404.534411 Z" fill="#FFFFFF" fill-rule="nonzero"></path>
            <path d="M1518.23901,417.184469 L1540.65817,424.865158 L1540.65998,459.633628 C1538.11883,460.268971 1535.23905,460.876877 1532.02065,461.457346 L1531.99785,461.528038 L1510.43263,461.372416 L1489.76037,470.955619 C1488.1827,471.686992 1486.31762,471.135297 1485.3859,469.688536 L1485.25872,469.474596 C1484.46498,468.017207 1484.95859,466.20456 1486.35422,465.343634 L1486.5018,465.258021 L1505.83439,454.728935 C1506.70746,454.253433 1507.11769,453.223245 1506.81048,452.277739 C1506.52708,451.405514 1505.64293,450.887673 1504.75451,451.050531 L1504.6213,451.080106 L1482.03202,456.979608 C1480.49498,457.381028 1478.91145,456.514731 1478.42055,455.003887 C1477.95437,453.569156 1478.6964,452.031832 1480.08562,451.492939 L1480.23691,451.439071 L1502.3944,444.239668 C1503.29576,443.946798 1503.78903,442.978685 1503.49616,442.077326 C1503.20287,441.174672 1502.3515,440.580978 1501.41504,440.605302 L1501.25826,440.615131 L1478.18554,442.909887 C1476.26856,443.07458 1474.57386,441.703608 1474.31526,439.81872 L1474.29475,439.634741 C1473.80784,438.136193 1474.62794,436.526663 1476.12649,436.039755 C1476.29194,435.985996 1476.46197,435.947483 1476.63443,435.924697 L1501.56779,432.630602 C1502.01042,432.572124 1502.32183,432.165898 1502.26335,431.723271 C1502.2569,431.674401 1502.24599,431.626224 1502.23075,431.579342 C1502.04976,431.022303 1501.54528,430.633572 1500.96051,430.600536 L1476.01252,429.19116 C1474.63734,429.113472 1473.48293,428.127908 1473.19053,426.781932 C1473.03751,425.000816 1474.21444,423.388203 1475.93534,422.976915 L1476.11527,422.938695 L1516.44995,420.911628 L1518.23901,417.184469 Z" fill="#FDC9AB"></path>
            <line x1="1594.96733" y1="410.800269" x2="1580.73992" y2="367.989907" stroke="#273237" stroke-width="2" stroke-linecap="round" stroke-linejoin="round"></line>
            <path d="M1498.86231,241.866101 L1498.86138,258.80146 C1493.73822,259.023605 1488.81835,259.335621 1484.09467,259.732597 L1484.09558,263.395609 C1484.09558,280.331018 1497.82444,294.05988 1514.75985,294.05988 C1531.69526,294.05988 1545.42412,280.331018 1545.42412,263.395609 L1545.42844,259.368819 C1540.73986,259.015092 1535.82166,258.752592 1530.66272,258.590436 L1530.66229,241.866101 L1498.86231,241.866101 Z" fill="#FDC9AB"></path>
            <polygon fill="#273237" points="1498.86231 241.866101 1498.86231 255.486907 1526.37252 244.500036 1509.55652 241.865907"></polygon>
            <path d="M1514.7623,191.320165 C1503.16391,191.320165 1493.76155,200.722522 1493.76155,212.320917 L1493.76155,238.310852 C1493.76155,243.281415 1497.79099,247.310852 1502.76155,247.310852 L1526.76305,247.310852 C1531.73362,247.310852 1535.76305,243.281415 1535.76305,238.310852 L1535.76305,212.320917 C1535.76305,200.722522 1526.3607,191.320165 1514.7623,191.320165 Z" fill="#FDC9AB"></path>
            <path d="M1525.58864,205.709873 C1523.43091,208.310771 1520.22703,209.815697 1516.84761,209.815697 L1493.78578,209.815697 C1489.49516,205.983595 1488.78617,201.792692 1491.65879,197.242988 C1495.96774,190.418432 1515.03464,182.578002 1525.58864,191.07875 C1542.84269,196.103174 1547.43387,205.515427 1539.36219,219.315509 L1535.76305,233.955071 L1530.66229,219.315509 L1529.39199,217.201926 C1527.38332,213.859835 1526.10828,210.131191 1525.64873,206.263343 L1525.58864,205.709873 Z" fill="#273237"></path>
            <path d="M1532.76096,215.620113 C1532.25139,215.620113 1531.8383,216.033204 1531.8383,216.542777 L1531.8383,228.822578 L1532.76096,228.822578 C1536.40672,228.822578 1539.36219,225.867105 1539.36219,222.221345 C1539.36219,218.575586 1536.40672,215.620113 1532.76096,215.620113 Z M1492.83889,215.620113 C1489.19313,215.620113 1486.23765,218.575586 1486.23765,222.221345 C1486.23765,225.789536 1489.0687,228.696501 1492.60714,228.818586 L1492.83889,228.822578 L1493.76155,228.822578 L1493.76155,215.620113 L1492.83889,215.620113 Z" fill="#FDC9AB"></path>
            <path d="M1504.67997,221.510697 L1502.02797,233.266012 C1502.40164,235.354319 1503.59383,236.192805 1505.60453,235.781468" stroke="#273237" stroke-width="2" stroke-linecap="round"></path>
            <line x1="0.793126464" y1="1023.77614" x2="1759.58625" y2="1023.77614" stroke="#151C24" stroke-width="3"></line>
            <path d="M717.25,229.776141 C717.25,229.776141 859.5,229.776141 1144,229.776141 C1140.27966,202.034605 1121.31111,188.163838 1087.09435,188.163838 C1035.7692,188.163838 989.040882,133.776141 930.625,133.776141 C872.209118,133.776141 871.922762,181.217346 824.446874,188.163838 C776.970986,195.110329 717.25,195.110329 717.25,229.776141 Z" fill="#FFFFFF"></path>
        </g>
    </g>
</svg>