<svg width="150" height="150" viewBox="0 0 150 150" fill="none" xmlns="http://www.w3.org/2000/svg">
<g filter="url(#filter0_i_107_43)">
<rect width="150" height="150" rx="38" fill="white"/>
</g>
<rect x="1.5" y="1.5" width="147" height="147" rx="36.5" stroke="url(#paint0_angular_107_43)" stroke-opacity="0.44" stroke-width="3"/>
<path d="M98.166 33.9844H61.3643C52.0649 33.9844 44.5312 40.7341 44.5312 49.0516V60.1664C44.5312 68.4921 52.0649 75.2419 61.3643 75.2419H98.166" stroke="#6518B6" stroke-width="8" stroke-miterlimit="10" stroke-linecap="round"/>
<path d="M98.166 75.2419H61.3643C52.0649 75.2419 44.5312 81.9917 44.5312 90.3092V101.424C44.5312 109.75 52.0649 116.499 61.3643 116.499H77.7683" stroke="#6518B6" stroke-width="8" stroke-miterlimit="10" stroke-linecap="round"/>
<path d="M98.166 76.001V116.499" stroke="#6518B6" stroke-width="8" stroke-miterlimit="10" stroke-linecap="round"/>
<path d="M98.1649 61.9157C94.1299 61.9157 90.8623 58.6481 90.8623 54.6131C90.8623 50.5781 94.1299 47.3105 98.1649 47.3105C102.2 47.3105 105.467 50.5781 105.467 54.6131C105.467 58.6481 102.2 61.9157 98.1649 61.9157Z" fill="#6518B6"/>
<defs>
<filter id="filter0_i_107_43" x="0" y="0" width="150" height="152" filterUnits="userSpaceOnUse" color-interpolation-filters="sRGB">
<feFlood flood-opacity="0" result="BackgroundImageFix"/>
<feBlend mode="normal" in="SourceGraphic" in2="BackgroundImageFix" result="shape"/>
<feColorMatrix in="SourceAlpha" type="matrix" values="0 0 0 0 0 0 0 0 0 0 0 0 0 0 0 0 0 0 127 0" result="hardAlpha"/>
<feMorphology radius="1" operator="erode" in="SourceAlpha" result="effect1_innerShadow_107_43"/>
<feOffset dy="2"/>
<feGaussianBlur stdDeviation="3.5"/>
<feComposite in2="hardAlpha" operator="arithmetic" k2="-1" k3="1"/>
<feColorMatrix type="matrix" values="0 0 0 0 0 0 0 0 0 0 0 0 0 0 0 0 0 0 0.1 0"/>
<feBlend mode="normal" in2="shape" result="effect1_innerShadow_107_43"/>
</filter>
<radialGradient id="paint0_angular_107_43" cx="0" cy="0" r="1" gradientUnits="userSpaceOnUse" gradientTransform="translate(75 75) rotate(90) scale(75)">
<stop offset="0.21875" stop-color="#8F00FF"/>
<stop offset="0.502414" stop-color="#EA74B4"/>
<stop offset="0.72686" stop-color="#FECB47"/>
<stop offset="0.957143" stop-color="#F36FFF"/>
</radialGradient>
</defs>
</svg>
